HIERARCHY
ROOT Hip
{
	OFFSET	0.0000	0.0000	0.0000
	CHANNELS 6 Xposition Yposition Zposition Xrotation Yrotation Zrotation
	JOINT LowerSpine
	{
		OFFSET	0.0000	8.3453	-5.1292
		CHANNELS 3 Xrotation Yrotation Zrotation
		JOINT MiddleSpine
		{
			OFFSET	10.8569	0.0000	0.0000
			CHANNELS 3 Xrotation Yrotation Zrotation
			JOINT Chest
			{
				OFFSET	15.2984	0.0000	0.0000
				CHANNELS 3 Xrotation Yrotation Zrotation
				JOINT Neck
				{
					OFFSET	25.6618	-0.5986	0.0000
					CHANNELS 3 Xrotation Yrotation Zrotation
					JOINT Head
					{
						OFFSET	8.8829	0.0000	0.0000
						CHANNELS 3 Xrotation Yrotation Zrotation
						End Site
						{
							OFFSET	19.7399	0.0000	0.0000
						}
					}
				}
				JOINT RClavicle
				{
					OFFSET	23.6878	0.0000	3.1584
					CHANNELS 3 Xrotation Yrotation Zrotation
					JOINT RShoulder
					{
						OFFSET	-15.5945	-3.9480	0.9870
						CHANNELS 3 Xrotation Yrotation Zrotation
						JOINT RForearm
						{
							OFFSET	-31.3370	0.0000	0.1974
							CHANNELS 3 Xrotation Yrotation Zrotation
							JOINT RHand
							{
								OFFSET	-26.4021	0.0000	0.0000
								CHANNELS 3 Xrotation Yrotation Zrotation
								End Site
								{
									OFFSET	-15.7919	-0.9870	0.0000
								}
							}
						}
					}
				}
				JOINT LClavicle
				{
					OFFSET	23.6878	0.0000	-3.1584
					CHANNELS 3 Xrotation Yrotation Zrotation
					JOINT LShoulder
					{
						OFFSET	-15.5945	-3.9480	-0.9870
						CHANNELS 3 Xrotation Yrotation Zrotation
						JOINT LForearm
						{
							OFFSET	-31.3370	0.0000	-0.1974
							CHANNELS 3 Xrotation Yrotation Zrotation
							JOINT LHand
							{
								OFFSET	-26.4021	0.0000	0.0000
								CHANNELS 3 Xrotation Yrotation Zrotation
								End Site
								{
									OFFSET	-15.7919	-0.9870	0.0000
								}
							}
						}
					}
				}
			}
		}
	}
	JOINT RThigh
	{
		OFFSET	-8.8829	0.4481	0.0000
		CHANNELS 3 Xrotation Yrotation Zrotation
		JOINT RShin
		{
			OFFSET	43.1316	0.0000	-0.4935
			CHANNELS 3 Xrotation Yrotation Zrotation
			JOINT RFoot
			{
				OFFSET	0.0000	-44.7256	-0.4047
				CHANNELS 3 Xrotation Yrotation Zrotation
				JOINT RToe
				{
					OFFSET	0.0000	-3.9332	12.1953
					CHANNELS 3 Xrotation Yrotation Zrotation
					End Site
					{
						OFFSET	6.7725	0.0000	0.0000
					}
				}
			}
		}
	}
	JOINT LThigh
	{
		OFFSET	8.8829	0.4481	0.0000
		CHANNELS 3 Xrotation Yrotation Zrotation
		JOINT LShin
		{
			OFFSET	43.1316	0.0000	0.4935
			CHANNELS 3 Xrotation Yrotation Zrotation
			JOINT LFoot
			{
				OFFSET	0.0000	-44.7256	0.4047
				CHANNELS 3 Xrotation Yrotation Zrotation
				JOINT LToe
				{
					OFFSET	0.0000	-3.9332	-12.1953
					CHANNELS 3 Xrotation Yrotation Zrotation
					End Site
					{
						OFFSET	6.7725	0.0000	0.0000
					}
				}
			}
		}
	}
}
MOTION
Frames:	8
Frame Time: 0.0169491000
	10.3486	92.6580	-6.2973	-2.183188	1.413823	3.120577	-89.999990	-90.000000	0.000000	-0.872450	0.861020	0.215743	-2.921704	2.853923	0.770135	0.000000	0.000000	0.000000	0.000000	0.000000	0.000000	90.159460	0.968993	-103.220900	-62.406360	15.274060	-6.771094	8.433896	55.799460	-10.469710	0.000000	0.000000	0.000000	-90.033270	0.772718	-79.597130	-16.898410	-0.096094	73.330450	-1.540925	-16.980410	-6.130699	0.000000	0.000000	0.000000	84.963460	79.413020	-176.301400	89.836270	17.931510	90.007350	-8.511413	9.215557	4.517894	173.241700	90.000000	0.000000	84.106750	85.966970	-167.206100	-89.978130	-2.432178	89.997990	4.633710	5.145751	-1.956353	182.357100	-90.000000	0.000000
	11.3975	92.4392	-6.7605	-1.807025	1.460100	4.588231	-89.999990	-90.000000	0.000000	-0.925448	0.939363	0.208650	-3.099194	3.114741	0.754451	0.000000	0.000000	0.000000	0.000000	0.000000	0.000000	90.168210	0.999187	-103.643300	-68.375470	22.710750	-4.899824	5.191685	42.755630	-7.996230	0.000000	0.000000	0.000000	-90.045890	0.859619	-78.417500	-15.862140	-1.168316	73.434300	-1.286558	-14.688880	-6.061277	0.000000	0.000000	0.000000	85.353950	77.192990	-178.031300	89.822920	19.314080	90.010200	-9.965711	9.260172	4.763433	174.287300	90.000000	0.000000	87.079130	83.928340	-170.270500	-89.987630	-1.373523	89.998750	4.104148	4.800675	-1.875588	182.058500	-90.000000	0.000000
	12.3004	92.1999	-7.1719	-1.491008	1.482556	5.981145	-89.999990	-90.000000	0.000000	-0.977680	1.032359	0.210049	-3.275557	3.424507	0.768849	0.000000	0.000000	0.000000	0.000000	0.000000	0.000000	90.179670	1.037490	-104.180400	-74.898380	28.947870	-2.237398	3.298771	31.124430	-6.852677	0.000000	0.000000	0.000000	-90.057870	0.932452	-77.425930	-14.755480	-1.771380	72.911440	-1.113316	-13.099570	-6.019672	0.000000	0.000000	0.000000	85.253970	75.103260	-179.349300	89.806180	21.020560	90.014230	-11.276360	9.476860	5.082743	174.997900	90.000000	0.000000	88.208940	82.019890	-171.475100	-89.996110	-0.427916	89.999590	3.699631	4.421507	-1.781047	181.812500	-90.000000	0.000000
	13.0989	91.9306	-7.5105	-1.330477	1.774420	7.335091	-89.999990	-90.000000	0.000000	-1.014166	1.135364	0.215300	-3.400229	3.767596	0.796340	0.000000	0.000000	0.000000	0.000000	0.000000	0.000000	90.195340	1.087843	-104.888900	-81.668730	34.178270	0.957735	2.037270	21.289500	-6.293504	0.000000	0.000000	0.000000	-90.067050	0.983536	-76.728690	-13.468430	-2.009571	71.747090	-1.022766	-12.260410	-5.999795	0.000000	0.000000	0.000000	84.959530	73.154200	179.508000	89.783840	23.248320	90.020370	-12.391570	9.469069	5.330949	175.061800	90.000000	0.000000	88.861540	80.365750	-172.192900	-90.000470	0.057174	90.000070	3.879737	3.203856	-1.323732	181.235700	-90.000000	0.000000
	13.7555	91.6657	-7.7221	-1.457493	2.496934	8.498068	-89.999990	-90.000000	0.000000	-1.017267	1.243948	0.215129	-3.413283	4.129900	0.803777	0.000000	0.000000	0.000000	0.000000	0.000000	0.000000	90.215470	1.149578	-105.761500	-87.959500	38.020140	4.751945	1.214985	14.034970	-6.043514	0.000000	0.000000	0.000000	-90.072730	1.013445	-76.319670	-11.906300	-1.540037	70.343990	-0.991774	-11.971950	-5.993289	0.000000	0.000000	0.000000	84.813980	71.588040	178.661200	89.761040	25.456870	90.027520	-13.210600	8.998333	5.402233	174.578300	90.000000	0.000000	89.863360	79.177930	-172.984100	-90.002430	0.275675	90.000300	4.466943	1.030015	-0.431369	180.478300	-90.000000	0.000000
	14.1443	91.4736	-7.8583	-1.665858	3.125721	9.324329	-89.999990	-90.000000	0.000000	-0.975806	1.357372	0.197993	-3.276081	4.509984	0.750804	0.000000	0.000000	0.000000	0.000000	0.000000	0.000000	90.238860	1.217590	-106.728000	-91.919250	39.607700	7.358473	0.788938	10.069290	-5.954501	0.000000	0.000000	0.000000	-90.075780	1.029018	-76.106450	-10.127860	-0.184485	68.976560	-1.015371	-12.191640	-5.998229	0.000000	0.000000	0.000000	84.700000	70.563830	177.999000	89.740740	27.364640	90.034610	-13.569470	8.533717	5.453064	173.850700	90.000000	0.000000	90.759360	78.389810	-173.714000	-90.002230	0.253863	90.000270	4.895915	-0.663851	0.292411	180.075400	-90.000000	0.000000
	14.3622	91.3630	-8.0205	-1.679480	3.040289	9.995500	-89.999990	-90.000000	0.000000	-0.892142	1.480656	0.154766	-2.995188	4.924969	0.606490	0.000000	0.000000	0.000000	0.000000	0.000000	0.000000	90.263270	1.284840	-107.689500	-92.152690	39.337550	7.225377	0.746067	9.664080	-5.947154	0.000000	0.000000	0.000000	-90.077670	1.038530	-75.976230	-8.900785	0.545236	67.893620	-1.057409	-12.582120	-6.007246	0.000000	0.000000	0.000000	84.317210	69.725500	177.389500	89.724130	28.883100	90.040890	-13.686710	8.262252	5.449981	173.520700	90.000000	0.000000	90.460690	77.587300	-173.629900	-90.000410	0.050946	90.000070	4.952846	-0.951131	0.418466	180.003100	-90.000000	0.000000
	14.5300	91.3054	-8.1338	-1.648979	2.360723	10.642270	-89.999990	-90.000000	0.000000	-0.782091	1.623382	0.083168	-2.622425	5.406026	0.364210	0.000000	0.000000	0.000000	0.000000	0.000000	0.000000	90.286170	1.344935	-108.553800	-89.413850	37.321190	5.121168	1.135608	13.305320	-6.024753	0.000000	0.000000	0.000000	-90.079460	1.047485	-75.853500	-8.702728	-0.332239	67.106580	-1.057748	-12.585270	-6.007320	0.000000	0.000000	0.000000	84.068050	68.908330	176.882700	89.716350	29.580210	90.043960	-13.859430	7.542849	5.023584	174.055100	90.000000	0.000000	89.523200	76.713920	-172.921100	-89.998680	-0.141098	89.999870	4.725573	-0.408689	0.170824	180.164600	-90.000000	0.000000
